<svg width="20" height="20" viewBox="0 0 20 20" fill="none" xmlns="http://www.w3.org/2000/svg">
<path d="M15 12.0832V6.45817C15 5.5415 14.25 4.7915 13.3334 4.7915H6.66669C5.75002 4.7915 5.00002 5.5415 5.00002 6.45817V12.0832M15 12.0832C15 11.1665 14.25 10.4165 13.3334 10.4165H6.66669C5.75002 10.4165 5.00002 11.1665 5.00002 12.0832M15 12.0832V13.1248M5.00002 12.0832V13.1248M15.8334 13.1248H15M15 13.1248H12.0834C12.0834 14.2748 11.15 15.2082 10 15.2082C8.85002 15.2082 7.91669 14.2748 7.91669 13.1248H5.00002M5.00002 13.1248H4.16669M15 11.6665V9.1665C15 8.24984 14.25 7.49984 13.3334 7.49984H6.66669C5.75002 7.49984 5.00002 8.24984 5.00002 9.1665V11.6665M7.50002 18.3332H12.5C16.6667 18.3332 18.3334 16.6665 18.3334 12.4998V7.49984C18.3334 3.33317 16.6667 1.6665 12.5 1.6665H7.50002C3.33335 1.6665 1.66669 3.33317 1.66669 7.49984V12.4998C1.66669 16.6665 3.33335 18.3332 7.50002 18.3332Z" stroke="white" stroke-opacity="0.95" stroke-width="1.5" stroke-linecap="round" stroke-linejoin="round"/>
</svg>
