<svg width="105" height="104" viewBox="0 0 105 104" fill="none" xmlns="http://www.w3.org/2000/svg">
<path d="M17.5875 25.87C12.0312 33.15 8.75 42.2067 8.75 52C8.75 75.92 28.35 95.3333 52.5 95.3333C76.65 95.3333 96.25 75.92 96.25 52C96.25 28.08 76.65 8.66667 52.5 8.66667M21.875 52C21.875 68.77 35.5688 82.3333 52.5 82.3333C69.4312 82.3333 83.125 68.77 83.125 52C83.125 35.23 69.4312 21.6667 52.5 21.6667M52.5 69.3333C62.1688 69.3333 70 61.5767 70 52C70 42.4233 62.1688 34.6667 52.5 34.6667" stroke="white" stroke-width="1.5" stroke-linecap="round" stroke-linejoin="round"/>
</svg>
