<svg width="18" height="18" viewBox="0 0 18 18" fill="none" xmlns="http://www.w3.org/2000/svg">
<path d="M2.89801 12.3412C2.25451 9.76725 1.93276 8.481 2.60851 7.6155C3.28426 6.75 4.61101 6.75 7.26376 6.75H10.7363C13.3898 6.75 14.7158 6.75 15.3915 7.6155C16.0673 8.481 15.7455 9.768 15.102 12.3412C14.6925 13.9785 14.4885 14.7967 13.878 15.2737C13.2675 15.75 12.4238 15.75 10.7363 15.75H7.26376C5.57626 15.75 4.73251 15.75 4.12201 15.2737C3.51151 14.7967 3.30676 13.9785 2.89801 12.3412Z" stroke="black" stroke-width="1.6875"/>
<path d="M14.625 7.125L14.0925 5.17125C13.887 4.4175 13.7842 4.041 13.5735 3.75675C13.3634 3.47435 13.078 3.2568 12.75 3.129C12.42 3 12.03 3 11.25 3M3.375 7.125L3.9075 5.17125C4.113 4.4175 4.21575 4.041 4.4265 3.75675C4.63663 3.47435 4.92202 3.2568 5.25 3.129C5.58 3 5.97 3 6.75 3" stroke="black" stroke-width="1.6875"/>
<path d="M6.75 3C6.75 2.80109 6.82902 2.61032 6.96967 2.46967C7.11032 2.32902 7.30109 2.25 7.5 2.25H10.5C10.6989 2.25 10.8897 2.32902 11.0303 2.46967C11.171 2.61032 11.25 2.80109 11.25 3C11.25 3.19891 11.171 3.38968 11.0303 3.53033C10.8897 3.67098 10.6989 3.75 10.5 3.75H7.5C7.30109 3.75 7.11032 3.67098 6.96967 3.53033C6.82902 3.38968 6.75 3.19891 6.75 3Z" stroke="black" stroke-width="1.6875"/>
<path d="M6.00002 9.75V12.75M12 9.75V12.75M9.00002 9.75V12.75" stroke="black" stroke-width="1.6875" stroke-linecap="round" stroke-linejoin="round"/>
</svg>
