<svg width="28" height="28" viewBox="0 0 28 28" fill="none" xmlns="http://www.w3.org/2000/svg">
<path d="M5.25 11.5H7.75C10.25 11.5 11.5 10.25 11.5 7.75V5.25C11.5 2.75 10.25 1.5 7.75 1.5H5.25C2.75 1.5 1.5 2.75 1.5 5.25V7.75C1.5 10.25 2.75 11.5 5.25 11.5Z" stroke="white" stroke-width="1.5" stroke-miterlimit="10" stroke-linecap="round" stroke-linejoin="round"/>
<path d="M20.25 11.5H22.75C25.25 11.5 26.5 10.25 26.5 7.75V5.25C26.5 2.75 25.25 1.5 22.75 1.5H20.25C17.75 1.5 16.5 2.75 16.5 5.25V7.75C16.5 10.25 17.75 11.5 20.25 11.5Z" stroke="white" stroke-width="1.5" stroke-miterlimit="10" stroke-linecap="round" stroke-linejoin="round"/>
<path d="M20.25 26.5H22.75C25.25 26.5 26.5 25.25 26.5 22.75V20.25C26.5 17.75 25.25 16.5 22.75 16.5H20.25C17.75 16.5 16.5 17.75 16.5 20.25V22.75C16.5 25.25 17.75 26.5 20.25 26.5Z" stroke="white" stroke-width="1.5" stroke-miterlimit="10" stroke-linecap="round" stroke-linejoin="round"/>
<path d="M5.25 26.5H7.75C10.25 26.5 11.5 25.25 11.5 22.75V20.25C11.5 17.75 10.25 16.5 7.75 16.5H5.25C2.75 16.5 1.5 17.75 1.5 20.25V22.75C1.5 25.25 2.75 26.5 5.25 26.5Z" stroke="white" stroke-width="1.5" stroke-miterlimit="10" stroke-linecap="round" stroke-linejoin="round"/>
</svg>
