<svg width="30" height="27" viewBox="0 0 30 27" fill="none" xmlns="http://www.w3.org/2000/svg">
<path d="M5 9.00009H3.75M26.25 9.00009H25M15 3.37509V5.62509M13.125 5.62509H16.875M7.5 16.8751H11.25M18.75 16.8751H22.5M19.3875 3.18384H10.6125C7.5 3.18384 6.8125 4.57884 6.4125 6.28884L5 12.3751H25L23.5875 6.28884C23.1875 4.57884 22.5 3.18384 19.3875 3.18384ZM27.4875 22.2976C27.625 23.6138 26.45 24.7501 24.95 24.7501H22.6C21.25 24.7501 21.0625 24.2326 20.825 23.5913L20.575 22.9163C20.225 21.9938 20 21.3751 18.2 21.3751H11.8C10 21.3751 9.7375 22.0726 9.425 22.9163L9.175 23.5913C8.9375 24.2326 8.75 24.7501 7.4 24.7501H5.05C3.55 24.7501 2.375 23.6138 2.5125 22.2976L3.2125 15.4463C3.3875 13.7588 3.75 12.3751 7.025 12.3751H22.975C26.25 12.3751 26.6125 13.7588 26.7875 15.4463L27.4875 22.2976Z" stroke="white" stroke-width="1.36402" stroke-linecap="round" stroke-linejoin="round"/>
</svg>
