<svg width="14" height="14" viewBox="0 0 14 14" fill="none" xmlns="http://www.w3.org/2000/svg">
<path d="M7 4.76675C7.99167 4.76675 8.8 3.95841 8.8 2.96675C8.8 1.97508 7.99167 1.16675 7 1.16675C6.00834 1.16675 5.2 1.97508 5.2 2.96675C5.2 3.95841 6.00834 4.76675 7 4.76675Z" stroke="white" stroke-width="1.5" stroke-linecap="round" stroke-linejoin="round"/>
<path d="M2.65834 12.8334C3.65 12.8334 4.45834 12.0251 4.45834 11.0334C4.45834 10.0417 3.65 9.23341 2.65834 9.23341C1.66667 9.23341 0.858337 10.0417 0.858337 11.0334C0.858337 12.0251 1.65834 12.8334 2.65834 12.8334Z" stroke="white" stroke-width="1.5" stroke-linecap="round" stroke-linejoin="round"/>
<path d="M11.3417 12.8334C12.3333 12.8334 13.1417 12.0251 13.1417 11.0334C13.1417 10.0417 12.3333 9.23341 11.3417 9.23341C10.35 9.23341 9.54167 10.0417 9.54167 11.0334C9.54167 12.0251 10.35 12.8334 11.3417 12.8334Z" stroke="white" stroke-width="1.5" stroke-linecap="round" stroke-linejoin="round"/>
</svg>
