<svg width="14" height="13" viewBox="0 0 14 13" fill="none" xmlns="http://www.w3.org/2000/svg">
<path d="M7.00001 12.5501C6.84445 12.5501 6.68623 12.5223 6.52534 12.4667C6.36445 12.4112 6.22268 12.3223 6.10001 12.2001L4.95001 11.1501C3.77223 10.0723 2.70823 9.00295 1.75801 7.94206C0.807788 6.88117 0.332899 5.71161 0.333344 4.43339C0.333344 3.38895 0.683344 2.51672 1.38334 1.81672C2.08334 1.11672 2.95557 0.766724 4.00001 0.766724C4.5889 0.766724 5.14445 0.891612 5.66668 1.14139C6.1889 1.39117 6.63334 1.73295 7.00001 2.16672C7.36668 1.73339 7.81112 1.39183 8.33334 1.14206C8.85557 0.892279 9.41112 0.767168 10 0.766724C11.0445 0.766724 11.9167 1.11672 12.6167 1.81672C13.3167 2.51672 13.6667 3.38895 13.6667 4.43339C13.6667 5.71117 13.1945 6.88339 12.25 7.95006C11.3056 9.01672 10.2333 10.0889 9.03334 11.1667L7.90001 12.2001C7.77779 12.3223 7.63623 12.4112 7.47534 12.4667C7.31445 12.5223 7.15601 12.5501 7.00001 12.5501ZM6.36668 3.50006C6.04445 3.0445 5.70001 2.69717 5.33334 2.45806C4.96668 2.21895 4.52223 2.09961 4.00001 2.10006C3.33334 2.10006 2.77779 2.32228 2.33334 2.76672C1.8889 3.21117 1.66668 3.76672 1.66668 4.43339C1.66668 5.01117 1.87223 5.62517 2.28334 6.27539C2.69445 6.92561 3.18623 7.55606 3.75868 8.16672C4.33112 8.77739 4.92001 9.34961 5.52534 9.88339C6.13068 10.4172 6.62223 10.8561 7.00001 11.2001C7.37779 10.8556 7.86957 10.4167 8.47534 9.88339C9.08112 9.35006 9.67001 8.77784 10.242 8.16672C10.814 7.55561 11.3056 6.92517 11.7167 6.27539C12.1278 5.62561 12.3333 5.01161 12.3333 4.43339C12.3333 3.76672 12.1111 3.21117 11.6667 2.76672C11.2222 2.32228 10.6667 2.10006 10 2.10006C9.47779 2.10006 9.03334 2.21961 8.66668 2.45872C8.30001 2.69783 7.95557 3.04495 7.63334 3.50006C7.55557 3.61117 7.46112 3.6945 7.35001 3.75006C7.2389 3.80561 7.12223 3.83339 7.00001 3.83339C6.87779 3.83339 6.76112 3.80561 6.65001 3.75006C6.5389 3.6945 6.44445 3.61117 6.36668 3.50006Z" fill="#051F23"/>
</svg>
