<svg width="31" height="31" viewBox="0 0 31 31" fill="none" xmlns="http://www.w3.org/2000/svg">
<path fill-rule="evenodd" clip-rule="evenodd" d="M15.3725 0.241455C16.2604 0.241455 16.9801 1.02663 16.9801 1.9952V4.42768C20.3684 4.8259 23.5498 6.47423 25.982 9.12767C28.796 12.1973 30.3768 16.3607 30.3768 20.7018C30.3768 21.632 30.0381 22.5242 29.4352 23.182C28.8322 23.8398 28.0142 24.2093 27.1616 24.2093H3.58347C2.73074 24.2093 1.91295 23.8398 1.30998 23.182C0.707017 22.5242 0.368275 21.632 0.368275 20.7018C0.368275 16.3607 1.94908 12.1973 4.76291 9.12767C7.19523 6.47425 10.3767 4.8259 13.7649 4.42768V1.9952C13.7649 1.02663 14.4847 0.241455 15.3725 0.241455ZM2.04155 27.4752C1.1537 27.4752 0.43395 28.2604 0.43395 29.229C0.43395 30.1975 1.1537 30.9827 2.04155 30.9827H28.7034C29.5912 30.9827 30.311 30.1975 30.311 29.229C30.311 28.2604 29.5912 27.4752 28.7034 27.4752H2.04155Z" fill="#F7F4F4"/>
</svg>
