<svg width="25" height="26" viewBox="0 0 25 26" fill="none" xmlns="http://www.w3.org/2000/svg">
<g clip-path="url(#clip0_150_158)">
<path fill-rule="evenodd" clip-rule="evenodd" d="M0.44643 2.3215C0.44643 1.29583 1.24592 0.464355 2.23214 0.464355H13.7262C14.7124 0.464355 15.5119 1.29583 15.5119 2.3215V7.54629H11.2738C9.05484 7.54629 7.25598 9.4171 7.25598 11.7249V16.1325H2.23214C1.24592 16.1325 0.44643 15.301 0.44643 14.2753V2.3215ZM5.00261 6.96192C4.9812 6.96298 4.95966 6.9635 4.938 6.9635C3.93888 6.9635 3.12893 6.12116 3.12893 5.08209L3.12897 5.06979L3.12893 5.05757C3.12893 4.03189 3.92841 3.20043 4.91464 3.20043L4.93906 3.20019C5.93818 3.20019 6.74813 4.04253 6.74813 5.08162C6.74813 6.09859 5.97231 6.9271 5.00261 6.96192ZM11.2738 9.86772C10.2876 9.86772 9.48813 10.6992 9.48813 11.7249V23.6786C9.48813 24.7043 10.2876 25.5358 11.2738 25.5358H22.7679C23.7541 25.5358 24.5536 24.7043 24.5536 23.6786V11.7249C24.5536 10.6992 23.7541 9.86772 22.7679 9.86772H11.2738ZM19.4313 16.6615C20.4175 16.6615 21.217 15.8301 21.217 14.8044C21.217 13.7787 20.4175 12.9473 19.4313 12.9473C18.445 12.9473 17.6455 13.7787 17.6455 14.8044C17.6455 15.8301 18.445 16.6615 19.4313 16.6615ZM16.3961 20.5991C16.3961 21.6248 15.5966 22.4563 14.6104 22.4563C13.6242 22.4563 12.8247 21.6248 12.8247 20.5991C12.8247 19.5734 13.6242 18.742 14.6104 18.742C15.5966 18.742 16.3961 19.5734 16.3961 20.5991Z" fill="white"/>
</g>
<defs>
<clipPath id="clip0_150_158">
<rect width="25" height="26" fill="white"/>
</clipPath>
</defs>
</svg>
