<svg width="16" height="16" viewBox="0 0 16 16" fill="none" xmlns="http://www.w3.org/2000/svg">
<path d="M4.66668 8.66663H9.33334C9.52223 8.66663 9.68068 8.60263 9.80868 8.47463C9.93668 8.34663 10.0005 8.1884 10 7.99996C9.99957 7.81152 9.93557 7.65329 9.80801 7.52529C9.68045 7.39729 9.52223 7.33329 9.33334 7.33329H4.66668C4.47779 7.33329 4.31957 7.39729 4.19201 7.52529C4.06445 7.65329 4.00045 7.81152 4.00001 7.99996C3.99957 8.1884 4.06357 8.34685 4.19201 8.47529C4.32045 8.60374 4.47868 8.66752 4.66668 8.66663ZM4.66668 6.66663H9.33334C9.52223 6.66663 9.68068 6.60263 9.80868 6.47463C9.93668 6.34663 10.0005 6.1884 10 5.99996C9.99957 5.81151 9.93557 5.65329 9.80801 5.52529C9.68045 5.39729 9.52223 5.33329 9.33334 5.33329H4.66668C4.47779 5.33329 4.31957 5.39729 4.19201 5.52529C4.06445 5.65329 4.00045 5.81151 4.00001 5.99996C3.99957 6.1884 4.06357 6.34685 4.19201 6.47529C4.32045 6.60374 4.47868 6.66751 4.66668 6.66663ZM2.66668 13.3333C2.30001 13.3333 1.98623 13.2028 1.72534 12.942C1.46445 12.6811 1.33379 12.3671 1.33334 12V3.99996C1.33334 3.63329 1.46401 3.31951 1.72534 3.05863C1.98668 2.79774 2.30045 2.66707 2.66668 2.66663H13.3333C13.7 2.66663 14.014 2.79729 14.2753 3.05863C14.5367 3.31996 14.6671 3.63374 14.6667 3.99996V12C14.6667 12.3666 14.5362 12.6806 14.2753 12.942C14.0145 13.2033 13.7005 13.3337 13.3333 13.3333H2.66668ZM2.66668 12H13.3333V3.99996H2.66668V12Z" fill="#051F23"/>
</svg>
