<svg width="23" height="23" viewBox="0 0 23 23" fill="none" xmlns="http://www.w3.org/2000/svg">
<path d="M11.5836 19.1021C11.0834 19.1021 10.6553 18.924 10.2991 18.5678C9.94295 18.2117 9.76487 17.7835 9.76487 17.2834C9.76487 16.7832 9.94295 16.3551 10.2991 15.9989C10.6553 15.6428 11.0834 15.4647 11.5836 15.4647C12.0837 15.4647 12.5119 15.6428 12.868 15.9989C13.2242 16.3551 13.4023 16.7832 13.4023 17.2834C13.4023 17.7835 13.2242 18.2117 12.868 18.5678C12.5119 18.924 12.0837 19.1021 11.5836 19.1021ZM11.5836 13.646C11.0834 13.646 10.6553 13.4679 10.2991 13.1117C9.94295 12.7556 9.76487 12.3274 9.76487 11.8273C9.76487 11.3271 9.94295 10.899 10.2991 10.5428C10.6553 10.1867 11.0834 10.0086 11.5836 10.0086C12.0837 10.0086 12.5119 10.1867 12.868 10.5428C13.2242 10.899 13.4023 11.3271 13.4023 11.8273C13.4023 12.3274 13.2242 12.7556 12.868 13.1117C12.5119 13.4679 12.0837 13.646 11.5836 13.646ZM11.5836 8.18988C11.0834 8.18988 10.6553 8.0118 10.2991 7.65564C9.94295 7.29948 9.76487 6.87133 9.76487 6.37119C9.76487 5.87105 9.94295 5.44289 10.2991 5.08673C10.6553 4.73057 11.0834 4.55249 11.5836 4.55249C12.0837 4.55249 12.5119 4.73057 12.868 5.08673C13.2242 5.44289 13.4023 5.87105 13.4023 6.37119C13.4023 6.87133 13.2242 7.29948 12.868 7.65564C12.5119 8.0118 12.0837 8.18988 11.5836 8.18988Z" fill="white" fill-opacity="0.968627"/>
</svg>
