<svg width="25" height="24" viewBox="0 0 25 24" fill="none" xmlns="http://www.w3.org/2000/svg">
<path fill-rule="evenodd" clip-rule="evenodd" d="M6.43327 2.42071C7.08609 2.08687 7.33339 1.30818 6.98563 0.681475C6.63786 0.0547724 5.82673 -0.18263 5.17391 0.151222C3.33105 1.09366 1.68663 2.35659 0.324334 3.87571C-0.158248 4.41384 -0.0950383 5.22564 0.465518 5.68891C1.02607 6.15219 1.8717 6.09151 2.35429 5.55338C3.50011 4.27565 4.88325 3.21341 6.43327 2.42071ZM12.5 24.0002C18.4173 24.0002 23.2143 19.3953 23.2143 13.7145C23.2143 8.0339 18.4173 3.42883 12.5 3.42883C6.58268 3.42883 1.78573 8.0339 1.78573 13.7145C1.78573 19.3953 6.58268 24.0002 12.5 24.0002ZM18.0145 0.681475C18.3621 0.0547724 19.1734 -0.18263 19.8261 0.151222C21.6689 1.09366 23.3134 2.35659 24.6757 3.87571C25.1582 4.41384 25.095 5.22564 24.5345 5.68891C23.9739 6.15219 23.1284 6.09151 22.6457 5.55338C21.5 4.27565 20.1168 3.21341 18.5668 2.42071C17.9139 2.08687 17.6667 1.30818 18.0145 0.681475ZM13.6161 8.57143C13.6161 7.97969 13.1164 7.5 12.5 7.5C11.8836 7.5 11.3839 7.97969 11.3839 8.57143V13.7143C11.3839 14.306 11.8836 14.7857 12.5 14.7857H16.9643C17.5807 14.7857 18.0804 14.306 18.0804 13.7143C18.0804 13.1225 17.5807 12.6429 16.9643 12.6429H13.6161V8.57143Z" fill="#fff"/>
</svg>
