<svg width="143" height="45" viewBox="0 0 143 45" fill="none" xmlns="http://www.w3.org/2000/svg">
<path d="M103.84 2.21575C100.528 0.994736 97.0271 0.382022 93.502 0.406465C82.102 0.406465 74.0507 6.21638 73.9937 14.5564C73.9225 20.6835 79.7151 24.1363 84.097 26.1835C88.5928 28.2883 90.0962 29.6146 90.082 31.496C90.0535 34.3577 86.491 35.6552 83.1778 35.6552C78.625 35.6552 76.1383 35.0137 72.3122 33.4062L70.8943 32.7358L69.277 42.3373C72.0486 43.5051 77.0432 44.507 82.2017 44.5935C94.3213 44.5935 102.244 38.8197 102.337 29.9462C102.437 25.0518 99.3017 21.3539 92.704 18.2975C88.6926 16.3153 86.206 14.9889 86.206 12.9778C86.206 11.1973 88.3363 9.29434 92.7895 9.29434C95.7532 9.22179 98.6985 9.78434 101.432 10.945L102.501 11.428L104.118 2.15088L103.84 2.21575ZM133.423 1.18496H124.517C121.745 1.18496 119.658 1.95626 118.447 4.73867L101.318 43.9953H113.438L115.86 37.5582L130.652 37.5726C131.001 39.0792 132.07 43.9953 132.07 43.9953H142.757L133.423 1.18496ZM57.5991 0.824546H69.1487L61.924 43.6565H50.3886L57.5991 0.81013V0.824546ZM28.2797 24.4318L29.4767 30.3787L40.7627 1.18496H52.9963L34.8205 43.9376H22.6153L12.6403 7.73733C12.4788 7.14043 12.0994 6.62777 11.5787 6.30288C7.98345 4.42394 4.17403 2.99806 0.235718 2.05717L0.392467 1.15613H18.9816C21.5038 1.25704 23.5345 2.05717 24.2113 4.78192L28.2726 24.4535L28.2797 24.4318ZM119.173 28.8001L123.776 16.8198C123.719 16.9496 124.724 14.3474 125.308 12.7399L126.099 16.4378L128.771 28.7929H119.166L119.173 28.8001Z" fill="white"/>
</svg>
